<svg width="573" height="227" viewBox="0 0 573 227" fill="none" xmlns="http://www.w3.org/2000/svg">
<path d="M66.0636 161.713C66.0636 158.46 65.1342 157.53 61.8812 157.53H59.093C52.3546 157.53 50.4958 155.671 50.4958 148.933V133.598C50.4958 126.859 52.3546 125 59.093 125H88.6021C95.3404 125 97.1993 126.859 97.1993 133.598V174.957C97.1993 212.366 86.0462 226.075 52.3546 226.075C18.6631 226.075 7.51002 212.366 7.51002 174.957V98.2795C7.51002 60.8702 18.6631 47.1612 52.3546 47.1612C86.0462 47.1612 96.7346 60.8702 96.7346 98.2795V99.4412C96.7346 106.18 94.8757 108.038 88.1374 108.038H73.2666C66.5283 108.038 64.6695 106.18 64.6695 99.4412V92.7029C64.6695 83.4087 60.7194 79.691 52.587 79.691C44.4546 79.691 40.5045 83.4087 40.5045 92.7029V180.533C40.5045 189.828 44.6869 193.545 53.2841 193.545C62.1136 193.545 66.0636 189.828 66.0636 180.533V161.713ZM171.35 161.713C171.35 158.46 170.42 157.53 167.167 157.53H164.379C157.641 157.53 155.782 155.671 155.782 148.933V133.598C155.782 126.859 157.641 125 164.379 125H193.888C200.627 125 202.485 126.859 202.485 133.598V174.957C202.485 212.366 191.332 226.075 157.641 226.075C123.949 226.075 112.796 212.366 112.796 174.957V98.2795C112.796 60.8702 123.949 47.1612 157.641 47.1612C191.332 47.1612 202.021 60.8702 202.021 98.2795V99.4412C202.021 106.18 200.162 108.038 193.424 108.038H178.553C171.814 108.038 169.956 106.18 169.956 99.4412V92.7029C169.956 83.4087 166.006 79.691 157.873 79.691C149.741 79.691 145.791 83.4087 145.791 92.7029V180.533C145.791 189.828 149.973 193.545 158.57 193.545C167.4 193.545 171.35 189.828 171.35 180.533V161.713Z" fill="white"/>
<path fill-rule="evenodd" clip-rule="evenodd" d="M202.937 1.75558C195.663 35.688 175.12 44.4726 164.517 44.7185C163.829 44.7345 163.248 44.2359 163.15 43.5541C163.074 43.0308 163.014 42.4842 162.97 41.9164C169.269 38.7727 177.617 29.9457 177.141 11.6816C182.847 7.00635 190.638 2.88943 201.14 0.0514008C202.186 -0.231294 203.164 0.696065 202.937 1.75558Z" fill="white"/>
<path d="M162.933 40.4451C168.665 37.8707 177.702 28.575 174.342 8.78018C174.209 7.99274 173.29 7.63228 172.657 8.11897C156.41 20.6045 158.3 34.0621 161.687 40.0331C161.937 40.4747 162.47 40.6531 162.933 40.4451Z" fill="white"/>
<path d="M264.01 105.554C264.01 104.11 263.598 103.698 262.154 103.698H260.917C257.926 103.698 257.101 102.872 257.101 99.8817V93.0751C257.101 90.0843 257.926 89.2592 260.917 89.2592H274.014C277.005 89.2592 277.83 90.0843 277.83 93.0751V111.432C277.83 128.036 272.88 134.121 257.926 134.121C242.972 134.121 238.021 128.036 238.021 111.432V77.3992C238.021 60.7951 242.972 54.7104 257.926 54.7104C272.88 54.7104 277.624 60.7951 277.624 77.3992V77.9148C277.624 80.9056 276.799 81.7307 273.808 81.7307H267.208C264.217 81.7307 263.392 80.9056 263.392 77.9148V74.924C263.392 70.7988 261.638 69.1487 258.029 69.1487C254.419 69.1487 252.666 70.7988 252.666 74.924V113.907C252.666 118.033 254.522 119.683 258.338 119.683C262.257 119.683 264.01 118.033 264.01 113.907V105.554ZM324.561 110.401C324.561 127.83 319.611 134.121 304.657 134.121C289.703 134.121 284.753 127.83 284.753 110.401V78.4305C284.753 61.1045 289.703 54.7104 304.657 54.7104C319.611 54.7104 324.561 61.1045 324.561 78.4305V110.401ZM299.397 113.907C299.397 118.033 301.047 119.683 304.657 119.683C308.267 119.683 309.917 118.033 309.917 113.907V75.4397C309.917 70.9019 308.267 69.1487 304.657 69.1487C301.047 69.1487 299.397 70.9019 299.397 75.4397V113.907ZM371.192 110.401C371.192 127.83 366.241 134.121 351.287 134.121C336.333 134.121 331.383 127.83 331.383 110.401V78.4305C331.383 61.1045 336.333 54.7104 351.287 54.7104C366.241 54.7104 371.192 61.1045 371.192 78.4305V110.401ZM346.028 113.907C346.028 118.033 347.678 119.683 351.287 119.683C354.897 119.683 356.547 118.033 356.547 113.907V75.4397C356.547 70.9019 354.897 69.1487 351.287 69.1487C347.678 69.1487 346.028 70.9019 346.028 75.4397V113.907ZM395.946 55.7417C415.747 55.7417 419.77 62.9608 419.77 80.4931V108.338C419.77 125.871 415.747 133.09 395.946 133.09H383.364C380.374 133.09 379.548 132.265 379.548 129.274V59.5575C379.548 56.5667 380.374 55.7417 383.364 55.7417H395.946ZM395.637 70.18C394.193 70.18 393.781 70.5925 393.781 72.0364V116.795C393.781 118.136 394.193 118.652 395.637 118.652H396.771C402.547 118.652 405.125 115.97 405.125 109.267V79.5649C405.125 72.8614 402.547 70.18 396.771 70.18H395.637ZM469.366 105.554C469.366 104.11 468.953 103.698 467.509 103.698H466.272C463.281 103.698 462.456 102.872 462.456 99.8817V93.0751C462.456 90.0843 463.281 89.2592 466.272 89.2592H479.37C482.36 89.2592 483.185 90.0843 483.185 93.0751V111.432C483.185 128.036 478.235 134.121 463.281 134.121C448.327 134.121 443.377 128.036 443.377 111.432V77.3992C443.377 60.7951 448.327 54.7104 463.281 54.7104C478.235 54.7104 482.979 60.7951 482.979 77.3992V77.9148C482.979 80.9056 482.154 81.7307 479.163 81.7307H472.563C469.572 81.7307 468.747 80.9056 468.747 77.9148V74.924C468.747 70.7988 466.994 69.1487 463.384 69.1487C459.775 69.1487 458.021 70.7988 458.021 74.924V113.907C458.021 118.033 459.878 119.683 463.694 119.683C467.613 119.683 469.366 118.033 469.366 113.907V105.554ZM516.2 59.5575C516.2 56.5667 517.025 55.7417 520.016 55.7417H526.616C529.607 55.7417 530.432 56.5667 530.432 59.5575V111.432C530.432 128.036 525.482 134.121 510.528 134.121C495.574 134.121 490.624 128.036 490.624 111.432V59.5575C490.624 56.5667 491.449 55.7417 494.439 55.7417H501.04C504.031 55.7417 504.856 56.5667 504.856 59.5575V113.907C504.856 118.033 506.609 119.683 510.528 119.683C514.344 119.683 516.2 118.033 516.2 113.907V59.5575ZM568.193 70.18H561.799C560.355 70.18 559.943 70.5925 559.943 72.0364V129.274C559.943 132.265 559.118 133.09 556.127 133.09H549.527C546.536 133.09 545.711 132.265 545.711 129.274V72.0364C545.711 70.5925 545.298 70.18 543.854 70.18H537.46C534.47 70.18 533.645 69.355 533.645 66.3642V59.5575C533.645 56.5667 534.47 55.7417 537.46 55.7417H568.193C571.184 55.7417 572.009 56.5667 572.009 59.5575V66.3642C572.009 69.355 571.184 70.18 568.193 70.18Z" fill="white"/>
<path d="M255.35 192.933H254.079C252.71 192.933 252.319 193.324 252.319 194.693V214.447C252.319 217.283 251.536 218.065 248.7 218.065H242.442C239.606 218.065 238.824 217.283 238.824 214.447V148.341C238.824 145.505 239.606 144.723 242.442 144.723H255.35C270.214 144.723 276.962 150.101 276.962 163.303V174.353C276.962 187.555 270.214 192.933 255.35 192.933ZM252.319 160.173V177.482C252.319 178.851 252.71 179.242 254.079 179.242H256.132C260.924 179.242 263.075 177.287 263.075 172.299V165.356C263.075 160.369 260.924 158.413 256.132 158.413H254.079C252.71 158.413 252.319 158.804 252.319 160.173ZM307.423 215.327L299.6 191.564C299.111 190.195 298.72 189.804 297.253 189.804H296.862C295.493 189.804 295.102 190.195 295.102 191.564V214.447C295.102 217.283 294.319 218.065 291.483 218.065H285.225C282.389 218.065 281.607 217.283 281.607 214.447V148.341C281.607 145.505 282.389 144.723 285.225 144.723H298.133C312.997 144.723 319.745 149.808 319.745 162.325V169.366C319.745 178.558 318.278 182.078 313.095 186.479C312.508 186.87 312.41 187.066 312.41 187.555C312.41 187.848 312.508 188.141 312.704 188.826L321.309 214.349C322.189 216.891 321.212 218.065 318.669 218.065H311.53C308.792 218.065 308.206 217.674 307.423 215.327ZM295.102 159.684V174.744C295.102 176.113 295.493 176.504 296.862 176.504H298.915C303.512 176.504 305.859 174.451 305.859 169.757V164.378C305.859 159.782 303.707 157.924 298.915 157.924H296.862C295.493 157.924 295.102 158.315 295.102 159.684ZM363.069 196.551C363.069 213.078 358.375 219.043 344.195 219.043C330.016 219.043 325.322 213.078 325.322 196.551V166.236C325.322 149.808 330.016 143.745 344.195 143.745C358.375 143.745 363.069 149.808 363.069 166.236V196.551ZM339.208 199.876C339.208 203.788 340.773 205.352 344.195 205.352C347.618 205.352 349.182 203.788 349.182 199.876V163.4C349.182 159.098 347.618 157.435 344.195 157.435C340.773 157.435 339.208 159.098 339.208 163.4V199.876ZM389.9 199.876V148.341C389.9 145.505 390.683 144.723 393.519 144.723H399.777C402.613 144.723 403.395 145.505 403.395 148.341V197.529C403.395 213.273 398.702 219.043 384.62 219.043C370.734 219.043 366.04 213.273 366.04 197.529V194.595C366.235 191.759 367.018 190.977 369.658 190.977H375.917C378.948 190.977 379.73 191.759 379.535 194.595V199.876C379.73 203.788 381.393 205.352 384.62 205.352C388.238 205.352 389.9 203.788 389.9 199.876ZM425.265 160.173V171.126C425.265 172.397 425.656 172.886 427.025 172.886H439.151C441.987 172.886 442.77 173.668 442.77 176.504V182.958C442.77 185.794 441.987 186.577 439.347 186.577H427.025C425.656 186.577 425.265 186.968 425.265 188.337V202.614C425.265 203.885 425.656 204.374 427.025 204.374H440.325C443.161 204.374 443.943 205.157 443.943 207.993V214.447C443.943 217.283 443.161 218.065 440.325 218.065H415.388C412.553 218.065 411.77 217.283 411.77 214.447V148.341C411.77 145.505 412.553 144.723 415.388 144.723H440.325C443.161 144.723 443.943 145.505 443.943 148.341V154.795C443.943 157.631 443.161 158.413 440.325 158.413H427.025C425.656 158.413 425.265 158.804 425.265 160.173ZM486.734 194.595V197.529C486.734 213.273 482.235 219.043 468.056 219.043C453.876 219.043 449.183 213.273 449.183 197.529V165.258C449.183 149.514 453.876 143.745 468.056 143.745C482.235 143.745 486.734 149.514 486.734 165.258V168.192C486.734 171.028 485.951 171.81 483.116 171.81H476.857C474.021 171.81 473.239 171.028 473.239 168.192V162.911C473.239 159 471.576 157.435 468.154 157.435C464.731 157.435 463.069 159 463.069 162.911V199.876C463.069 203.788 464.731 205.352 468.154 205.352C471.576 205.352 473.239 203.788 473.239 199.876V194.595C473.239 191.759 474.021 190.977 476.857 190.977H483.116C485.951 190.977 486.734 191.759 486.734 194.595ZM521.505 158.413H515.442C514.073 158.413 513.682 158.804 513.682 160.173V214.447C513.682 217.283 512.899 218.065 510.064 218.065H503.805C500.969 218.065 500.187 217.283 500.187 214.447V160.173C500.187 158.804 499.796 158.413 498.427 158.413H492.364C489.528 158.413 488.745 157.631 488.745 154.795V148.341C488.745 145.505 489.528 144.723 492.364 144.723H521.505C524.341 144.723 525.123 145.505 525.123 148.341V154.795C525.123 157.631 524.341 158.413 521.505 158.413Z" fill="white"/>
</svg>
